<svg xmlns="http://www.w3.org/2000/svg" xmlns:xlink="http://www.w3.org/1999/xlink" xml:space="preserve" version="1.1" style="shape-rendering:geometricPrecision;text-rendering:geometricPrecision;image-rendering:optimizeQuality;" viewBox="0 0 60000 75000" x="0px" y="0px" fill-rule="evenodd" clip-rule="evenodd"><defs><style type="text/css">
   
    .fil0 {fill:black;fill-rule:nonzero}
   
  </style></defs><g><path class="fil0" d="M28006 49689l22320 -40685 -44639 0 22320 40685zm23540 -29799c73,-126 55,-282 -45,-388 -150,-155 -404,-126 -514,60l-328 559c-73,126 -55,282 45,388 150,155 404,126 514,-60l328 -559zm-14007 22588c-73,126 -55,282 45,388 150,155 404,126 514,-60l323 -551c73,-126 55,-282 -45,-388 -150,-155 -404,-126 -514,60l-323 551zm1308 -2228c-73,126 -55,282 45,388 150,155 404,126 514,-60l328 -559c73,-126 55,-282 -45,-388 -150,-155 -404,-126 -514,60l-328 559zm1312 -2237c-73,126 -55,282 45,388 150,155 404,126 514,-60l328 -559c73,-126 55,-282 -45,-388 -150,-155 -404,-126 -514,60l-328 559zm1312 -2237c-73,126 -55,282 45,388 150,155 404,126 514,-60l328 -559c73,-126 55,-282 -45,-388 -150,-155 -404,-126 -514,60l-328 559zm1312 -2237c-73,126 -55,282 45,388 150,155 404,126 514,-60l328 -559c73,-126 55,-282 -45,-388 -150,-155 -404,-126 -514,60l-328 559zm1312 -2237c-73,126 -55,282 45,388 150,155 404,126 514,-60l328 -559c73,-126 55,-282 -45,-388 -150,-155 -404,-126 -514,60l-328 559zm1312 -2237c-73,126 -55,282 45,388 150,155 404,126 514,-60l328 -559c73,-126 55,-282 -45,-388 -150,-155 -404,-126 -514,60l-328 559zm1312 -2237c-73,126 -55,282 45,388 150,155 404,126 514,-60l328 -559c73,-126 55,-282 -45,-388 -150,-155 -404,-126 -514,60l-328 559zm1312 -2236c-73,126 -55,282 45,388 150,155 404,126 514,-60l328 -559c73,-126 55,-282 -45,-388 -150,-155 -404,-126 -514,60l-328 559zm1312 -2236c-73,126 -55,282 45,388 150,155 404,126 514,-60l328 -559c73,-126 55,-282 -45,-388 -150,-155 -404,-126 -514,60l-328 559zm5758 -14253c90,-154 288,-205 442,-115 154,90 205,288 115,442l-13448 22916c-90,154 -288,205 -442,115 -154,-90 -205,-288 -115,-442l13448 -22916zm-42456 21646c-69,-125 -23,-283 102,-351 125,-69 283,-23 351,102l14903 27165 5441 -9918c69,-125 226,-171 351,-102 125,69 171,226 102,351l-5667 10329c-23,43 -58,79 -103,104 -125,69 -283,23 -351,-102l-15130 -27579zm2029 -26582c-70,-124 -26,-282 98,-352 124,-70 282,-26 352,98l2264 4014c70,124 26,282 -98,352 -124,70 -282,26 -352,-98l-2264 -4014zm-1701 23c-82,-145 -30,-329 115,-410 145,-82 329,-30 410,115l2264 4014c82,145 30,329 -115,410 -145,82 -329,30 -410,-115l-2264 -4014zm-1701 23c-93,-166 -35,-375 131,-469 166,-93 375,-35 469,131l2264 4014c93,166 35,375 -131,469 -166,93 -375,35 -469,-131l-2264 -4014zm-1701 23c-105,-186 -39,-422 147,-527 186,-105 422,-39 527,147l2264 4014c105,186 39,422 -147,527 -186,105 -422,39 -527,-147l-2264 -4014zm-1701 23c-117,-207 -43,-469 164,-586 207,-117 469,-43 586,164l2264 4014c117,207 43,469 -164,586 -207,117 -469,43 -586,-164l-2264 -4014zm-1701 23c-128,-228 -48,-516 180,-644 228,-128 516,-48 644,180l2264 4014c128,228 48,516 -180,644 -228,128 -516,48 -644,-180l-2264 -4014zm-1701 23c-140,-248 -52,-563 197,-703 248,-140 563,-52 703,197l2264 4014c140,248 52,563 -197,703 -248,140 -563,52 -703,-197l-2264 -4014zm11524 10600l6 648 -648 6 -6 -648 648 -6zm12965 -117l6 648 -648 6 -6 -648 648 -6zm-2593 23l6 648 -648 6 -6 -648 648 -6zm-2593 23l6 648 -648 6 -6 -648 648 -6zm-2593 23l6 648 -648 6 -6 -648 648 -6zm-2593 23l6 648 -648 6 -6 -648 648 -6zm9970 5343l4637 8452 4637 -8452 -9273 0zm4189 9267l-9481 0 4741 8641 4741 -8641zm-9928 -815l4637 -8452 -9273 0 4637 8452zm7114 -3793l-1926 -3511 -3885 7082 7770 0 -1959 -3570zm3543 4625l-5184 9450c-29,53 -72,99 -129,131 -157,86 -353,29 -439,-128l-10362 -18888c-32,-50 -50,-109 -50,-173 0,-179 145,-324 324,-324l20742 0 0 1c53,0 106,13 156,40 157,86 214,283 128,439l-5186 9453zm-13632 -17724c179,0 324,145 324,324 0,179 -145,324 -324,324l-10210 0 4194 7645c86,157 29,353 -128,439 -157,86 -353,29 -439,-128l-4448 -8108c-32,-50 -50,-109 -50,-173 0,-179 145,-324 324,-324l10757 0zm-1581 17724c-86,-157 -29,-353 128,-439 157,-86 353,-29 439,128l9176 16727 9176 -16727c86,-157 283,-214 439,-128 157,86 214,283 128,439l-9459 17241c-29,53 -72,99 -129,131 -157,86 -353,29 -439,-128l-9460 -17244zm28664 -17724c179,0 324,145 324,324 0,179 -145,324 -324,324l-18920 0c-179,0 -324,-145 -324,-324 0,-179 145,-324 324,-324l18920 0zm-6869 19088l-11595 21136c-46,85 -116,159 -207,209 -251,138 -565,46 -703,-205l-23180 -42253c-51,-80 -80,-175 -80,-276 0,-286 232,-519 519,-519l46389 0 0 1c84,0 170,20 249,64 251,138 342,452 205,703l-11597 21140z"/></g><text x="0" y="60015" fill="#000000" font-size="5px" font-weight="bold" font-family="'Helvetica Neue', Helvetica, Arial-Unicode, Arial, Sans-serif">Created by Olena Panasovska</text><text x="0" y="60020" fill="#000000" font-size="5px" font-weight="bold" font-family="'Helvetica Neue', Helvetica, Arial-Unicode, Arial, Sans-serif">from the Noun Project</text></svg>